<?xml version="1.0" standalone="no"?>
<!DOCTYPE svg PUBLIC "-//W3C//DTD SVG 20010904//EN"
 "http://www.w3.org/TR/2001/REC-SVG-20010904/DTD/svg10.dtd">
<svg version="1.0" xmlns="http://www.w3.org/2000/svg"
 width="800.000000pt" height="800.000000pt" viewBox="0 0 800.000000 800.000000"
 preserveAspectRatio="xMidYMid meet">
<metadata>
Created by potrace 1.11, written by Peter Selinger 2001-2013
</metadata>
<g transform="translate(0.000000,800.000000) scale(0.100000,-0.100000)"
fill="#000000" stroke="none">
<path d="M0 4000 l0 -4000 4000 0 4000 0 0 4000 0 4000 -4000 0 -4000 0 0
-4000z m3512 3537 c3 -141 0 -131 76 -267 16 -30 33 -71 37 -90 l7 -35 -44 48
c-35 39 -51 50 -84 54 l-41 5 -26 -53 c-34 -70 -84 -239 -159 -528 -174 -684
-231 -980 -197 -1042 6 -13 49 -62 95 -111 88 -92 117 -138 128 -201 l7 -39
-55 56 c-92 92 -190 126 -268 93 -36 -15 -37 -18 -52 -97 -3 -14 -19 -95 -36
-180 -76 -384 -86 -497 -47 -564 28 -51 70 -75 152 -87 87 -14 221 4 267 35
46 30 56 72 29 123 -29 57 -68 102 -121 136 l-45 29 58 -6 c133 -14 267 -121
338 -270 23 -47 46 -86 52 -86 19 0 -1 104 -36 188 l-35 82 30 -17 c17 -10 54
-39 83 -65 55 -50 75 -59 75 -33 0 8 -22 82 -50 163 -27 81 -54 180 -60 220
-23 148 24 287 128 384 67 61 136 98 312 163 143 53 201 87 260 151 61 67 84
124 76 192 -4 31 -15 69 -26 86 -34 56 -104 114 -175 148 -59 28 -84 33 -158
36 -83 4 -91 2 -160 -31 -114 -55 -209 -152 -220 -224 -1 -10 -6 -23 -10 -30
-4 -6 -5 -17 -2 -25 3 -7 1 -20 -4 -28 -8 -12 -13 -11 -32 5 -33 30 -59 94
-59 147 0 39 6 56 35 93 39 52 50 95 41 163 -5 43 -1 58 49 160 l55 114 -5
136 c-5 162 3 206 51 275 36 52 36 52 30 17 -20 -106 -19 -126 14 -226 36
-111 70 -183 96 -205 13 -10 48 -14 148 -13 154 1 233 19 279 65 16 17 31 29
32 27 2 -2 -3 -17 -10 -34 -13 -31 -54 -64 -182 -144 -71 -45 -102 -83 -86
-109 5 -9 49 -30 96 -47 161 -58 239 -120 295 -234 23 -48 27 -66 26 -140 -3
-210 -94 -321 -388 -470 -146 -74 -201 -116 -227 -174 -41 -91 -20 -153 113
-331 148 -199 213 -319 233 -427 10 -54 28 -47 50 18 26 77 74 141 147 196 34
26 64 46 66 44 1 -2 -11 -39 -28 -82 -37 -92 -50 -174 -29 -174 8 0 24 26 36
58 60 152 237 292 370 292 l37 0 -45 -29 c-54 -35 -90 -73 -118 -126 -27 -52
-26 -77 4 -113 31 -37 115 -57 236 -56 113 0 173 28 207 94 21 40 23 55 18
130 -2 47 -7 105 -11 130 -10 72 -104 551 -110 560 -11 17 -79 32 -121 26 -63
-8 -120 -40 -182 -103 l-54 -54 7 37 c12 64 44 114 136 210 49 52 91 105 95
120 10 39 -2 152 -30 289 -66 322 -251 1045 -306 1196 -42 116 -49 123 -103
115 -37 -6 -49 -14 -76 -51 -17 -24 -36 -47 -40 -50 -18 -10 20 88 64 170 48
88 51 99 59 276 3 70 17 121 29 109 4 -5 465 -1003 752 -1630 147 -322 500
-1088 582 -1263 35 -76 71 -155 79 -176 l15 -38 -231 -504 c-127 -277 -251
-546 -276 -598 -24 -51 -44 -95 -44 -97 0 -2 -29 -66 -64 -142 -35 -75 -126
-272 -201 -437 -254 -556 -297 -649 -441 -963 -79 -172 -144 -317 -144 -322 0
-6 -3 -10 -7 -10 -5 0 -8 263 -8 584 l0 585 41 10 c100 25 236 149 318 289
l47 81 -21 133 c-21 133 -29 191 -34 238 -2 14 -4 94 -4 178 -2 176 1 172
-100 121 -73 -36 -166 -125 -204 -195 -15 -27 -38 -88 -51 -134 l-25 -84 -12
74 c-7 42 -10 114 -8 166 3 51 2 98 -2 105 -11 18 -69 -21 -125 -84 -105 -115
-127 -221 -101 -467 15 -140 18 -174 20 -265 2 -115 -14 -200 -51 -265 -15
-25 -82 -131 -150 -237 -142 -222 -193 -314 -193 -349 0 -14 20 -95 45 -181
25 -85 45 -171 45 -189 0 -46 -16 -75 -125 -229 -109 -154 -135 -200 -135
-238 0 -69 110 -221 176 -244 17 -6 71 -10 120 -9 81 1 97 4 156 34 36 19 88
54 117 79 28 24 51 41 51 37 0 -7 -171 -392 -283 -637 -29 -65 -57 -119 -62
-118 -4 0 -70 136 -147 303 -240 522 -257 570 -230 639 6 15 53 89 105 165 52
77 100 150 107 164 26 49 19 82 -47 235 -87 200 -87 209 -4 375 35 69 97 185
139 259 41 74 84 157 95 185 23 61 26 176 8 286 -19 113 -89 377 -113 424 -62
124 -164 231 -282 297 -106 58 -105 59 -98 -66 3 -66 0 -133 -8 -182 l-13 -77
-24 89 c-13 48 -36 110 -51 138 -41 77 -126 159 -203 195 -104 50 -99 55 -99
-110 0 -89 -7 -192 -19 -273 -11 -71 -22 -148 -25 -170 -2 -22 -7 -58 -11 -80
-5 -35 -1 -49 39 -117 83 -140 221 -264 322 -289 l44 -11 -1 -547 c0 -300 -3
-562 -7 -582 -7 -34 -15 -18 -156 290 -83 179 -206 448 -274 596 -68 149 -157
342 -197 430 -40 88 -100 219 -133 290 -32 72 -108 236 -167 365 -58 129 -192
421 -297 648 -104 227 -188 421 -185 430 3 9 100 224 217 477 292 634 746
1621 995 2163 196 426 209 452 225 437 15 -14 19 -38 22 -148z"/>
</g>
</svg>
